<?xml version="1.0" encoding="utf-8"?><svg width="65" height="50" fill="none" xmlns="http://www.w3.org/2000/svg" viewBox="0 0 65 50"><path d="M16.044 45.96V17.896c0-9.113 7.387-16.5 16.5-16.5s16.5 7.387 16.5 16.5V45.96M11.981 46.271h41.124M.94 49.355h63.207M23.295 16.896h18.5M23.295 26.646h18.5M20.295 30.146h24.5M23.295 33.646h18.5M32.045 42.396h1M25.67 42.396h3.375M36.045 42.396h3.375M26.67 20.396h11.75M58.648 44.355l1.082 4.833 2.085-3.083M1.898 46.355l1.916 2.916 3.25-3.25M3.064 42.938l1 6" stroke="#fff" stroke-miterlimit="10" stroke-linecap="round" stroke-linejoin="round"/></svg>