<?xml version="1.0" encoding="utf-8"?><svg width="42" height="46" fill="none" xmlns="http://www.w3.org/2000/svg" viewBox="0 0 42 46"><path d="M10.781 40.068V24.423a4.938 4.938 0 10-9.875 0c0 1.869 1.051 3.476 2.582 4.313v9.372c0 1.104.848 2 1.892 2h31.078v4.781h-2.312l-1.188-4.75M6.822 1.484s3.75 5.917 3.958 22.792" stroke="#fff" stroke-miterlimit="10" stroke-linecap="round" stroke-linejoin="round"/><path d="M5.541 40.109v4.781h2.312l1.188-4.75M31.219 40.068V24.423a4.938 4.938 0 119.875 0c0 1.869-1.051 3.476-2.582 4.313v9.372c0 1.104-.848 2-1.892 2" stroke="#fff" stroke-miterlimit="10" stroke-linecap="round" stroke-linejoin="round"/><path d="M36.802 19.526c-.167-5.583 2-16.208 2-16.208a1.834 1.834 0 00-1.834-1.834H5.03a1.834 1.834 0 00-1.834 1.834s2.167 10.625 2 16.208M35.178 1.484s-3.75 5.917-3.958 22.792M10.864 31.526h20.25M16.813 5.546v3.688M18.657 7.39h-3.688M16.813 13.484v3.687M18.657 15.328h-3.688M16.813 21.421v3.688M18.657 23.265h-3.688M25.188 5.546v3.688M27.032 7.39h-3.688M25.188 13.484v3.687M27.032 15.328h-3.688M25.188 21.421v3.688M27.032 23.265h-3.688" stroke="#fff" stroke-miterlimit="10" stroke-linecap="round" stroke-linejoin="round"/></svg>