<?xml version="1.0" encoding="utf-8"?><svg width="47" height="46" fill="none" xmlns="http://www.w3.org/2000/svg" viewBox="0 0 47 46"><path d="M8.665 38.739c0-.06-.06-.059-.062-.118L4.758 27.97c-.124-.297-.249-.531-.492-.765L1.11 24.226a.874.874 0 01-.252-.77l1.093-4.966.173-.361 1.807-2.062c.233-.241.405-.603.458-.961L5.68 8.107c0-.06.058-.18.057-.238L8.834 1.73c.113-.3.408-.426.707-.432.06-.001.181-.003.241.055l4.371 1.166 2.11 1.209c8.328 5.319 10.861 6.88 11.704 7.339l.74.323.573-.229c.594-.07 1.545-.149 3.092-.358.177-.003.356.054.538.109l1.748 1.098c.242.174.483.229.782.282l3.406.529c.24.057.42.171.544.346 2.574 3.705 4.537 6.528 5.03 7.472l-.666 2.396a2.22 2.22 0 00.017.893l2.375 8.654c.123.237.067.416.013.655l-3.058 5.126-.297.711-.577.318-11.299 4.155-1.658.628-.238.004-4.13-.931c-.119.002-.18-.057-.299-.054l-2.193.577-5.33 1.654a.945.945 0 01-.778-.163l-6.605-5.59-1.032-.933z" stroke="#fff" stroke-miterlimit="10"/><path d="M8.144 38.401l3.457-.487 9.184-24.741-6.59-10.803M28.238 11.201l8.751 18.448h2.7l1.136-4.996 3.133-4.16M24.024 42.83l-12.422-4.916M25.645 23.492l-3.405 5.672 1.46 13.451" stroke="#fff" stroke-miterlimit="10"/><path d="M28.67 43.964l8.32-14.585-11.345-5.887-4.86-10.319M39.69 29.379l2.538 9.455" stroke="#fff" stroke-miterlimit="10"/></svg>