<?xml version="1.0" encoding="utf-8"?><svg width="24" height="24" xmlns="http://www.w3.org/2000/svg" viewBox="0 0 24 24"><path d="M5.251 11.266a545.262 545.262 0 016.847-2.95c3.261-1.355 3.938-1.591 4.379-1.6.097-.001.314.023.455.137a.502.502 0 01.167.319c.016.09.034.299.02.46-.176 1.857-.94 6.363-1.33 8.44-.164.88-.487 1.176-.803 1.205-.681.062-1.199-.451-1.859-.883-1.033-.678-1.617-1.1-2.62-1.761-1.159-.763-.408-1.183.252-1.87.173-.178 3.177-2.91 3.236-3.16.007-.03.014-.146-.056-.207-.068-.061-.17-.04-.242-.023-.104.023-1.755 1.115-4.953 3.273-.469.32-.893.479-1.273.47-.418-.008-1.225-.236-1.823-.431-.736-.24-1.32-.365-1.27-.771.026-.213.317-.43.873-.648z"/><path d="M12 0C5.372 0 0 5.373 0 12s5.372 12 12 12c6.627 0 12-5.373 12-12S18.627 0 12 0zm0 22C6.477 22 2 17.523 2 12S6.477 2 12 2c5.522 0 10 4.477 10 10s-4.478 10-10 10z"/></svg>