<?xml version="1.0" encoding="utf-8"?><svg width="24" height="24" xmlns="http://www.w3.org/2000/svg" viewBox="0 0 24 24"><path d="M11.79 0C5.29 0 0 5.383 0 12c0 1.987.485 3.942 1.407 5.684L0 24l6.27-1.397A11.619 11.619 0 0011.79 24c6.501 0 11.79-5.383 11.79-12S18.291 0 11.79 0zm0 21.759a9.39 9.39 0 01-4.773-1.308l-.381-.226-3.682.82.828-3.714-.219-.378A9.909 9.909 0 012.242 12c0-5.381 4.284-9.759 9.549-9.759S21.339 6.62 21.339 12s-4.284 9.759-9.549 9.759z"/><path d="M17.303 14.815c-.017-.16.05-.401-.526-.573-.576-.171-1.996-.58-2.14-.635-.147-.054-.311-.083-.487.028-.173.111-.284.17-.432.324-.145.155-.328.329-.44.466-.122.153-.257.312-.55.18-.292-.13-1.256-.59-2.073-1.333-1.053-.956-1.437-1.815-1.604-2.076-.167-.263-.162-.425.006-.607.167-.18.733-.775.988-.988.257-.214.192-.393.073-.636C10 8.721 9.19 7.435 9.02 7.173c-.167-.262-.255-.439-.378-.495-.121-.057-.675.002-1.294.3-.62.298-1.124 1.491-1.115 2.003.006.51-.364.549 1.04 3.24 1.402 2.69 4.466 4.157 4.666 4.277.198.117 1.616.968 2.976.825 1.358-.144 1.95-.928 2.198-1.21.25-.282.288-.588.269-.773-.021-.182-.063-.364-.08-.525z"/></svg>