<?xml version="1.0" encoding="utf-8"?><svg width="49" height="46" fill="none" xmlns="http://www.w3.org/2000/svg" viewBox="0 0 49 46"><path d="M8.607 9.287a2.592 2.592 0 01-3.668-3.662 2.594 2.594 0 013.666-.003 2.596 2.596 0 01.002 3.665z" stroke="#fff" stroke-miterlimit="10"/><path d="M43.498 31.892a.56.56 0 000-.798l-1.655-1.655a.564.564 0 00-.798.002l-4.574 4.58-1.483-1.482.433-.432a.565.565 0 00-.001-.8l-2.071-2.068a.566.566 0 00-.8.001l-.432.431-16.008-15.986c1.796-3.166 1.351-7.27-1.349-9.966C11.526.49 6.267.492 3.036 3.726c-3.227 3.231-3.228 8.493.007 11.725 2.707 2.704 6.832 3.14 9.994 1.317L29.041 32.75l-.427.43a.56.56 0 000 .797l2.071 2.07a.559.559 0 00.799 0l.429-.429 8.933 8.922c.219.22.58.22.8 0l2.277-2.279a.57.57 0 00-.002-.799l-1.052-1.05 4.572-4.58a.564.564 0 000-.799l-1.661-1.657a.565.565 0 00-.797 0l-1.26 1.26-1.482-1.483 1.257-1.26z" stroke="#fff" stroke-miterlimit="10"/></svg>