<svg width="65" height="50" viewBox="0 0 65 50" fill="none" xmlns="http://www.w3.org/2000/svg"><path d="M16.044 45.96V17.896c0-9.113 7.387-16.5 16.5-16.5s16.5 7.387 16.5 16.5V45.96m-37.063.311h41.124M.94 49.355h63.207M23.295 16.896h18.5m-18.5 9.75h18.5m-21.5 3.5h24.5m-21.5 3.5h18.5m-9.75 8.75h1m-7.375 0h3.375m7 0h3.375m-12.75-22h11.75m20.228 23.959l1.082 4.833 2.085-3.083m-59.917.25l1.916 2.916 3.25-3.25m-4-3.083l1 6" stroke="#fff" stroke-miterlimit="10" stroke-linecap="round" stroke-linejoin="round"/></svg>