<svg width="18" height="15" viewBox="0 0 18 15" fill="none" xmlns="http://www.w3.org/2000/svg"><path d="M1.237 6.459C6.068 4.34 9.292 2.945 10.904 2.27 15.508.347 16.464.012 17.087 0c.136-.003.443.031.642.193a.714.714 0 01.236.453c.022.128.048.425.028.655-.249 2.635-1.327 9.032-1.878 11.982-.231 1.25-.687 1.669-1.134 1.71-.961.088-1.692-.64-2.624-1.254-1.459-.963-2.283-1.562-3.7-2.5-1.636-1.083-.575-1.68.356-2.655.245-.253 4.486-4.131 4.57-4.485.01-.044.019-.209-.08-.295-.096-.087-.24-.057-.341-.033-.147.033-2.478 1.583-6.994 4.647-.662.456-1.26.68-1.797.669-.59-.013-1.73-.337-2.574-.614C.758 8.133-.066 7.955.004 7.38c.037-.303.448-.61 1.233-.92z" fill="#fff"/></svg>