<svg width="66" height="45" viewBox="0 0 66 45" fill="none" xmlns="http://www.w3.org/2000/svg"><path d="M33 29.95a3.167 3.167 0 100-6.334 3.167 3.167 0 000 6.334z" stroke="#fff" stroke-miterlimit="10"/><path d="M10.348 29.189l-1.822 1.51 2.198.87-1.653 1.692 2.278.639-1.467 1.854 2.33.396-1.265 1.998 2.36.151-1.05 2.117 2.363-.096-.456 1.229h38.178l-.457-1.23 2.363.097-1.05-2.117 2.36-.151-1.265-1.998 2.33-.396-1.467-1.854 2.277-.639-1.652-1.691 2.197-.871-1.82-1.51 2.094-1.097-1.97-1.309 1.97-1.311-2.094-1.097 1.82-1.51-2.197-.871 1.652-1.691-2.277-.637 1.467-1.856-2.33-.396 1.265-1.998-2.36-.15 1.05-2.118-2.363.096.822-2.217-2.34.344.586-2.291-2.29.586.343-2.34-2.217.824.098-2.363-2.12 1.049-.15-2.36-1.997 1.266-.396-2.33-1.854 1.467-.638-2.278-1.691 1.653-.872-2.198-1.51 1.82-1.097-2.093-1.31 1.967-1.31-1.967-1.097 2.094-1.51-1.821-.871 2.198L26.773 2.6l-.637 2.278-1.855-1.467-.396 2.33-1.998-1.266-.15 2.36-2.12-1.049.098 2.363-2.217-.824.344 2.34-2.291-.586.586 2.29-2.34-.343.823 2.217-2.363-.096 1.05 2.119-2.36.149 1.266 1.998-2.331.396 1.467 1.856-2.278.637 1.653 1.691-2.198.871 1.822 1.51-2.095 1.097 1.968 1.311-1.968 1.309 2.095 1.097z" stroke="#fff" stroke-miterlimit="10"/><path d="M.748 44.216h64" stroke="#fff" stroke-miterlimit="10" stroke-linecap="round" stroke-linejoin="round"/></svg>