<svg width="31" height="20" viewBox="0 0 31 20"  xmlns="http://www.w3.org/2000/svg">
<path d="M25.1169 17.2224V19.4445H30.9506V18.9446H28.6173V6.22217H25.1084V6.7221H25.1169V14.4443V17.2224Z" />
<path d="M23.9652 19.059C23.3834 19.4219 22.6913 19.3891 22.1728 19.3891C20.9227 19.3891 20.9506 17.6112 20.9506 17.0279V6.22217H15.1172V6.7221H17.4505V14.6946C17.4505 15.9723 17.5059 20.0002 21.5339 20.0002C22.5422 20.0002 23.2915 19.6634 23.8496 19.1799L23.9652 19.059Z" />
<path d="M6.80071 11.0214V0.772487V0H0V0.499931H2.91656V18.9446H0V19.4445H6.80071V11.0214Z" />
<path d="M15.1163 19.4443V12.2781H14.6164C14.5659 14.8951 13.3528 18.7434 9.36621 19.4443H15.1163Z" />
</svg>
