<svg width="35" height="46" viewBox="0 0 35 46" fill="none" xmlns="http://www.w3.org/2000/svg"><path d="M34.319 38.76a2.427 2.427 0 01-2.427 2.426H5.318A2.426 2.426 0 012.89 38.76V3.27A2.427 2.427 0 015.318.843h26.574a2.428 2.428 0 012.427 2.427v35.49z" stroke="#fff" stroke-miterlimit="10"/><path d="M.68 8.601h4.387M.68 16.877h4.387M.68 25.152h4.387M.68 33.428h4.387M8.74.999V41.08m2.54.243v3.927l1.704-1.704 1.705 1.704v-3.927m3.794-22.466h6.064m-9.06 2.27h12.056m-6.027-6.628a3.062 3.062 0 100-6.124 3.062 3.062 0 000 6.124z" stroke="#fff" stroke-miterlimit="10" stroke-linecap="round" stroke-linejoin="round"/></svg>