<svg width="200" height="71" viewBox="0 0 200 71" xmlns="http://www.w3.org/2000/svg"><path d="M176.818 26.232a12.906 12.906 0 01-4.86-5.12c-1.144-2.155-1.713-4.507-1.713-7.051 0-2.98.752-5.534 2.256-7.66a14.147 14.147 0 015.792-4.796C180.653.535 183.059 0 185.52 0c2.748 0 5.164.643 7.247 1.93 2.083 1.288 3.68 2.988 4.796 5.1a14.23 14.23 0 011.669 6.727c0 2.633-.695 5.046-2.082 7.246-1.388 2.197-3.247 3.934-5.577 5.208-2.33 1.27-4.853 1.907-7.571 1.907-2.694.001-5.088-.628-7.184-1.886zm14.016-.456c1.577-.954 2.821-2.357 3.733-4.208.91-1.852 1.366-4.05 1.366-6.596 0-2.72-.506-5.137-1.518-7.247-1.014-2.112-2.439-3.76-4.277-4.946-1.837-1.187-3.984-1.78-6.444-1.78-3.183 0-5.671 1.027-7.465 3.081-1.793 2.055-2.689 4.876-2.689 8.461 0 2.72.506 5.201 1.52 7.443 1.011 2.243 2.428 4.006 4.253 5.293 1.822 1.29 3.891 1.932 6.205 1.932 1.969 0 3.74-.479 5.316-1.433z"/><path d="M181.315 26.646L197.457 9.46v1.39l-15.27 16.336-.872-.541zM18.207 14.602c1.401 1.345 2.102 3.017 2.102 5.014 0 1.534-.376 2.921-1.128 4.166-.752 1.243-1.786 2.22-3.102 2.928-1.317.709-2.784 1.064-4.404 1.064-.954 0-1.997-.045-3.125-.13a117.53 117.53 0 00-1.43-.088 35.407 35.407 0 00-1.824-.042l-2.95.042c-.521.03-1.26.044-2.214.044-.058 0-.088-.086-.088-.26 0-.176.029-.26.088-.26 1.1 0 1.908-.078 2.43-.239.52-.16.882-.442 1.084-.848.203-.403.305-1.039.305-1.908V3.993c0-.87-.095-1.506-.283-1.91-.188-.406-.543-.687-1.063-.846C2.083 1.077 1.287.999.217.999.131.999.087.91.087.739c0-.175.044-.26.13-.26l2.127.044c1.215.059 2.197.086 2.95.086.521 0 1.007-.013 1.455-.044A29.85 29.85 0 007.898.478c.896-.085 1.737-.13 2.517-.13 2.43 0 4.254.527 5.468 1.584 1.216 1.058 1.822 2.437 1.822 4.146 0 1.388-.448 2.624-1.345 3.71-.896 1.083-2.127 1.929-3.688 2.54 2.287.17 4.13.928 5.535 2.274zM7.79 1.172c-.362.117-.628.39-.804.824-.172.434-.26 1.127-.26 2.083v8.246l1.952.042c2.113 0 3.677-.542 4.687-1.63 1.011-1.083 1.52-2.52 1.52-4.316 0-1.621-.441-2.928-1.323-3.927-.884-.998-2.25-1.497-4.1-1.497-.752 0-1.31.059-1.672.175zm7.942 24.192c1.027-1.085 1.542-2.64 1.542-4.665 0-2.197-.645-3.978-1.933-5.337-1.287-1.36-3.058-2.054-5.315-2.082-.925-.029-2.024 0-3.298.085v10.72c0 .752.107 1.329.326 1.736.215.406.634.701 1.258.89.622.187 1.526.282 2.713.282 2.11 0 3.681-.543 4.707-1.629zm38.211 1.976c0 .174-.043.26-.13.26-.897 0-1.606-.014-2.127-.044l-2.994-.042-3.168.042c-.52.03-1.214.044-2.082.044-.087 0-.131-.086-.131-.26 0-.176.045-.26.13-.26 1.128 0 1.954-.073 2.475-.218.521-.144.876-.427 1.063-.845.187-.419.281-1.064.281-1.932V13.93H30.597v10.155c0 .868.092 1.513.281 1.932.187.417.542.701 1.062.845.52.145 1.345.218 2.475.218.057 0 .086.084.086.26 0 .174-.029.26-.086.26-.898 0-1.607-.014-2.127-.044l-3.126-.042-2.993.042c-.52.03-1.245.044-2.17.044-.06 0-.088-.086-.088-.26 0-.176.029-.26.087-.26 1.099 0 1.918-.073 2.451-.218.536-.144.897-.427 1.086-.845.188-.419.282-1.064.282-1.932V3.993c0-.87-.094-1.506-.282-1.91-.189-.405-.543-.687-1.063-.846-.52-.16-1.33-.238-2.431-.238-.058 0-.085-.089-.085-.26 0-.175.027-.26.085-.26l2.213.044c1.215.059 2.183.086 2.907.086a70.3 70.3 0 003.17-.086l2.081-.045c.058 0 .086.087.086.262 0 .172-.028.259-.085.259-1.1 0-1.92.087-2.453.261-.537.172-.898.47-1.085.89-.189.417-.281 1.062-.281 1.93v8.938h16.663V4.08c0-.868-.095-1.512-.282-1.93-.187-.42-.542-.718-1.062-.89-.523-.174-1.348-.26-2.475-.26-.087 0-.13-.089-.13-.26 0-.175.044-.26.13-.26l2.082.044c1.273.059 2.33.086 3.169.086.78 0 1.777-.027 2.994-.086l2.126-.045c.087 0 .13.087.13.262 0 .172-.043.259-.13.259-1.1 0-1.908.078-2.429.238-.522.16-.876.44-1.064.847-.188.403-.282 1.04-.282 1.909v20.092c0 .868.094 1.513.282 1.932.19.417.543.701 1.064.845.52.145 1.329.218 2.429.218.09 0 .134.084.134.26zM83.104.739c0 .171-.03.259-.088.259-.753 0-1.475.281-2.17.847-.692.561-1.274 1.35-1.736 2.363l-9.675 20.96c-.465.985-1.007 1.72-1.628 2.214-.623.49-1.398.737-2.322.737-.84 0-1.562-.194-2.17-.585-.607-.39-.912-.932-.912-1.628 0-.492.168-.91.502-1.258.331-.347.772-.52 1.322-.52.491 0 .868.137 1.126.412.263.275.495.645.696 1.107.146.319.283.558.413.717a.62.62 0 00.5.238c.577 0 1.097-.565 1.562-1.692L70 21.657 60.495 4.08c-.638-1.158-1.208-1.959-1.715-2.409C58.272 1.224 57.588 1 56.719 1c-.06 0-.086-.089-.086-.26 0-.175.026-.26.086-.26l1.737.044c.868.059 1.605.086 2.213.086 1.07 0 2.212-.027 3.428-.086l1.736-.045c.087 0 .13.087.13.262 0 .172-.043.259-.13.259-1.88 0-2.821.477-2.821 1.43 0 .32.13.723.39 1.216l8.07 14.84 6.642-14.492c.23-.55.347-1 .347-1.348 0-.578-.275-.996-.826-1.259-.55-.259-1.404-.388-2.56-.388-.087 0-.13-.089-.13-.26 0-.175.043-.26.13-.26l1.78.044c.982.058 1.88.086 2.688.086.494 0 1.088-.028 1.78-.086l1.693-.045c.06 0 .088.086.088.262zm28.77 26.601c0 .174-.03.26-.086.26h-5.467c-.406 0-.76-.11-1.064-.325-.302-.218-.803-.787-1.497-1.715-.695-.926-1.939-2.674-3.731-5.25-1.418-2.025-2.446-3.43-3.081-4.21-.638-.78-1.29-1.338-1.953-1.673-.665-.331-1.563-.497-2.69-.497-.26 0-.447.015-.564.042v10.113c0 .868.093 1.513.282 1.932.189.417.535.701 1.04.845.506.145 1.324.218 2.453.218.057 0 .088.084.088.26 0 .174-.031.26-.088.26-.898 0-1.606-.014-2.128-.044l-3.124-.042-2.952.042c-.52.03-1.244.044-2.168.044-.06 0-.087-.086-.087-.26 0-.176.027-.26.087-.26 1.098 0 1.908-.073 2.43-.218.52-.144.874-.427 1.063-.845.188-.419.283-1.064.283-1.932V3.993c0-.87-.086-1.506-.262-1.91-.173-.405-.52-.687-1.038-.846-.522-.16-1.333-.238-2.433-.238-.057 0-.085-.089-.085-.26 0-.175.028-.26.085-.26l2.128.044c1.214.059 2.198.086 2.951.086.84 0 1.894-.027 3.167-.086l2.084-.045c.057 0 .088.087.088.262 0 .172-.03.259-.088.259-1.099 0-1.91.087-2.43.261-.52.172-.875.47-1.064.89-.189.417-.282 1.062-.282 1.93v9.158c1.562-.06 2.532-.088 2.908-.088h.824l5.252-7.333c1.302-1.794 1.952-3.037 1.952-3.732 0-.377-.182-.651-.543-.825-.361-.174-.918-.261-1.672-.261-.059 0-.087-.089-.087-.26 0-.175.028-.26.087-.26l1.867.044a54.146 54.146 0 006.119 0l1.562-.045c.086 0 .131.087.131.262 0 .172-.045.259-.131.259-1.506 0-2.836.37-3.99 1.107-1.161.737-2.404 1.99-3.733 3.751l-5.816 7.424c.694.115 1.294.348 1.8.694s1.02.833 1.54 1.455c.521.622 1.288 1.655 2.3 3.102l.65.91c1.36 1.91 2.461 3.37 3.298 4.383.839 1.014 1.722 1.803 2.647 2.365a6.098 6.098 0 003.082.89c.056 0 .086.084.086.26zm7.488-1.108a12.913 12.913 0 01-4.86-5.12c-1.141-2.155-1.713-4.507-1.713-7.051 0-2.98.752-5.534 2.254-7.66a14.15 14.15 0 015.795-4.796C123.196.535 125.603 0 128.064 0c2.747 0 5.164.643 7.247 1.93 2.083 1.288 3.682 2.988 4.796 5.1a14.232 14.232 0 011.67 6.727c0 2.633-.695 5.046-2.083 7.246-1.389 2.197-3.248 3.934-5.577 5.208-2.329 1.27-4.855 1.907-7.572 1.907-2.692.001-5.087-.628-7.183-1.886zm14.018-.456c1.575-.954 2.82-2.357 3.732-4.208.91-1.852 1.366-4.05 1.366-6.596 0-2.72-.505-5.137-1.519-7.247-1.014-2.112-2.436-3.76-4.274-4.946-1.839-1.187-3.984-1.78-6.444-1.78-3.185 0-5.673 1.027-7.466 3.081-1.793 2.055-2.689 4.876-2.689 8.461 0 2.72.505 5.201 1.519 7.443 1.011 2.243 2.429 4.006 4.253 5.293 1.822 1.29 3.89 1.932 6.205 1.932 1.966 0 3.739-.479 5.317-1.433zm30.461-11.174c1.404 1.345 2.105 3.017 2.105 5.014 0 1.534-.377 2.921-1.13 4.166a7.956 7.956 0 01-3.101 2.928c-1.317.709-2.786 1.064-4.405 1.064a41.43 41.43 0 01-3.124-.13 119.68 119.68 0 00-1.433-.088 35.316 35.316 0 00-1.822-.042l-2.95.042a41.64 41.64 0 01-2.214.044c-.059 0-.086-.086-.086-.26 0-.176.027-.26.086-.26 1.099 0 1.911-.078 2.431-.239.52-.16.881-.442 1.084-.848.202-.403.303-1.039.303-1.908V3.993c0-.87-.092-1.506-.283-1.91-.185-.406-.543-.687-1.062-.846-.522-.16-1.318-.238-2.387-.238-.088 0-.13-.089-.13-.26 0-.175.042-.26.13-.26l2.127.044c1.215.059 2.199.086 2.95.086.522 0 1.004-.013 1.453-.044.449-.027.831-.056 1.153-.087a26.86 26.86 0 012.516-.13c2.429 0 4.254.527 5.468 1.584 1.215 1.058 1.823 2.437 1.823 4.146 0 1.388-.449 2.624-1.345 3.71-.898 1.083-2.126 1.929-3.69 2.54 2.285.17 4.13.928 5.533 2.274zm-10.415-13.43c-.364.117-.63.39-.805.824-.173.434-.26 1.127-.26 2.083v8.246l1.953.042c2.112 0 3.673-.542 4.688-1.63 1.011-1.083 1.518-2.52 1.518-4.316 0-1.621-.441-2.928-1.324-3.927-.881-.998-2.247-1.497-4.1-1.497-.752 0-1.309.059-1.67.175zm7.942 24.192c1.024-1.085 1.539-2.64 1.539-4.665 0-2.197-.645-3.978-1.933-5.337-1.286-1.36-3.057-2.054-5.316-2.082a34.56 34.56 0 00-3.297.085v10.72c0 .752.11 1.329.325 1.736.219.406.639.701 1.259.89.623.187 1.527.282 2.714.282 2.11 0 3.68-.543 4.709-1.629zM0 70.736c0-.174.027-.26.087-.26 1.101 0 1.91-.073 2.43-.218.52-.143.876-.426 1.064-.846.188-.418.282-1.062.282-1.93V47.388c0-.868-.094-1.506-.282-1.908-.188-.406-.536-.688-1.042-.848-.505-.16-1.307-.24-2.407-.24-.059 0-.088-.086-.088-.257 0-.177.028-.264.088-.264h18.356c.288 0 .435.132.435.39l.085 5.686c0 .089-.085.131-.26.131-.174 0-.26-.042-.26-.13-.116-1.622-.609-2.886-1.477-3.799-.867-.91-1.996-1.367-3.385-1.367H10.2c-.985 0-1.724.072-2.213.219-.493.143-.833.404-1.02.78-.188.375-.283.926-.283 1.648v19.876c0 .926.123 1.599.37 2.019.244.418.729.715 1.452.888.723.175 1.866.262 3.429.262.086 0 .13.085.13.26 0 .174-.045.259-.13.259a66.4 66.4 0 01-2.777-.044l-3.906-.041-2.95.041c-.52.03-1.26.044-2.214.044-.06.002-.088-.084-.088-.257zm29.229-1.41c.244.419.724.715 1.431.888.711.176 1.83.263 3.364.263.086 0 .13.084.13.259 0 .174-.044.259-.13.259a66.23 66.23 0 01-2.777-.044l-3.775-.04-2.908.04c-.548.03-1.286.044-2.212.044-.058 0-.087-.085-.087-.26 0-.174.03-.258.087-.258 1.097 0 1.902-.074 2.407-.22.506-.143.847-.425 1.019-.845.176-.419.262-1.062.262-1.93V47.388c0-.868-.086-1.506-.262-1.908-.172-.406-.514-.689-1.019-.848-.504-.16-1.309-.24-2.407-.24-.058 0-.087-.086-.087-.257 0-.177.03-.264.087-.264l2.17.043c1.214.062 2.183.089 2.906.089.725 0 1.533-.045 2.431-.132.346 0 .896-.02 1.65-.064a34.327 34.327 0 011.952-.064c2.661 0 4.795.594 6.4 1.777 1.606 1.188 2.409 2.995 2.409 5.425 0 1.91-.471 3.514-1.41 4.817a8.611 8.611 0 01-3.624 2.908 11.398 11.398 0 01-4.556.956c-.84 0-1.534-.073-2.084-.217-.085 0-.129-.074-.129-.218 0-.086.022-.175.064-.262.044-.087.095-.116.154-.087a6.33 6.33 0 001.563.176c1.908 0 3.52-.622 4.836-1.865 1.316-1.246 1.973-3.038 1.973-5.384 0-2.282-.62-4.082-1.864-5.4-1.246-1.319-2.837-1.976-4.774-1.976-1.04 0-1.793.06-2.256.175a1.443 1.443 0 00-.999.802c-.203.42-.302 1.124-.302 2.106v19.831c-.002.927.12 1.6.367 2.019zm42.766 1.41c0 .174-.057.259-.173.259-.55 0-1.405-.029-2.56-.085a53.796 53.796 0 00-2.518-.086c-.637 0-1.448.027-2.43.086a38.26 38.26 0 01-2.127.085c-.114 0-.173-.085-.173-.259s.059-.26.173-.26c1.07 0 1.851-.102 2.344-.305.493-.2.737-.546.737-1.04 0-.406-.188-1.027-.562-1.867l-4.99-10.63h-8.203l-3.731 8.851c-.408.985-.608 1.793-.608 2.43 0 1.709 1.418 2.562 4.253 2.562.144 0 .215.085.215.259s-.07.259-.215.259c-.522 0-1.274-.029-2.257-.085-1.1-.06-2.053-.086-2.864-.086-.752 0-1.62.027-2.604.086-.868.056-1.59.085-2.169.085-.145 0-.218-.085-.218-.259s.073-.26.218-.26c.809 0 1.496-.153 2.06-.456.566-.303 1.099-.838 1.606-1.605.505-.766 1.062-1.874 1.67-3.318l9.159-21.613c.057-.085.157-.13.303-.13.142 0 .23.044.26.13l10.242 21.568c.984 2.14 1.824 3.58 2.517 4.318.694.737 1.518 1.108 2.474 1.108.112-.001.171.084.171.258zM51.903 55.72h7.378l-3.907-8.243-3.471 8.243zm51.509 15.016c0 .174-.044.259-.13.259a39.43 39.43 0 01-2.127-.044l-2.993-.04-3.168.04c-.522.03-1.216.044-2.082.044-.088 0-.131-.085-.131-.259s.043-.26.13-.26c1.129 0 1.952-.073 2.474-.218.52-.143.876-.426 1.064-.846.186-.418.281-1.062.281-1.93V57.325H80.066v10.157c0 .868.093 1.512.283 1.93.188.42.543.701 1.063.846.52.145 1.344.219 2.475.219.056 0 .086.085.086.259s-.03.259-.086.259c-.896 0-1.606-.014-2.127-.044l-3.125-.04-2.994.04c-.52.03-1.245.044-2.17.044-.058 0-.086-.085-.086-.259s.028-.26.086-.26c1.1 0 1.918-.073 2.452-.218.537-.143.897-.426 1.087-.846.187-.418.282-1.062.282-1.93V47.388c0-.868-.095-1.506-.282-1.908-.19-.406-.544-.688-1.063-.848-.521-.16-1.333-.24-2.431-.24-.058 0-.086-.086-.086-.257 0-.177.028-.264.085-.264l2.212.044c1.217.06 2.184.088 2.908.088.84 0 1.895-.027 3.169-.088l2.083-.044c.056 0 .086.087.086.264 0 .17-.03.258-.086.258-1.1 0-1.919.088-2.453.261-.534.175-.896.472-1.085.89-.19.42-.283 1.063-.283 1.933v8.938H96.73v-8.938c0-.868-.095-1.514-.281-1.933-.188-.417-.543-.715-1.064-.89-.52-.173-1.345-.261-2.473-.261-.088 0-.131-.087-.131-.258 0-.177.043-.264.13-.264l2.083.044c1.273.06 2.328.088 3.168.088.781 0 1.779-.027 2.993-.088l2.127-.044c.086 0 .13.087.13.264 0 .17-.044.258-.13.258-1.099 0-1.908.08-2.43.239-.52.16-.875.44-1.063.848-.187.402-.283 1.04-.283 1.908v20.094c0 .868.095 1.512.283 1.93.187.42.543.701 1.063.846.522.145 1.331.219 2.43.219.086 0 .13.085.13.259zm32.417 0c0 .174-.028.26-.087.26-.924 0-1.649-.015-2.169-.044l-2.992-.042-3.171.041c-.519.03-1.214.044-2.082.044-.057 0-.086-.085-.086-.259s.029-.259.086-.259c1.128 0 1.952-.074 2.473-.22.521-.142.875-.425 1.063-.845.189-.418.284-1.062.284-1.93V49.559l-16.143 17.27v.653c0 .868.092 1.512.284 1.93.186.42.541.701 1.061.846.52.145 1.346.219 2.474.219.058 0 .085.085.085.259s-.027.26-.085.26c-.899 0-1.606-.015-2.126-.044l-3.127-.042-2.991.041a40.4 40.4 0 01-2.171.044c-.059 0-.085-.085-.085-.259s.026-.259.085-.259c1.1 0 1.918-.074 2.452-.22.536-.142.896-.425 1.086-.845.188-.418.282-1.062.282-1.93V47.388c0-.868-.093-1.505-.282-1.908-.19-.406-.544-.688-1.063-.848-.522-.16-1.331-.239-2.43-.239-.059 0-.086-.087-.086-.258 0-.177.027-.264.086-.264l2.213.044c1.214.06 2.184.088 2.905.088.841 0 1.897-.027 3.171-.088l2.083-.044c.057 0 .084.087.084.264 0 .17-.027.258-.084.258-1.101 0-1.92.088-2.453.261-.536.175-.896.472-1.083.89-.191.42-.284 1.063-.284 1.933v17.878l16.143-17.186v-.694c0-.868-.093-1.513-.284-1.933-.187-.417-.542-.714-1.062-.889-.522-.173-1.345-.261-2.474-.261-.057 0-.086-.088-.086-.258 0-.177.029-.264.086-.264l2.083.044a67.83 67.83 0 003.17.088c.722 0 1.72-.028 2.992-.089l2.169-.043c.059 0 .088.087.088.264 0 .17-.029.258-.088.258-1.099 0-1.908.08-2.429.239-.52.16-.875.44-1.064.848-.188.402-.284 1.04-.284 1.908V67.48c0 .868.095 1.511.284 1.93.188.42.544.701 1.064.846.521.145 1.33.219 2.429.219.058.001.086.086.086.26zm4.708-24.694c-.91.928-1.569 2.504-1.974 4.731 0 .06-.08.087-.238.087-.159 0-.239-.027-.239-.087.117-1.044.245-2.402.391-4.077.146-1.682.217-2.94.217-3.776 0-.146.079-.218.239-.218.158 0 .238.072.238.218 0 .637.781.952 2.344.952 2.457.087 5.366.132 8.721.132 1.709 0 3.516-.027 5.424-.088l2.95-.044c1.044 0 1.816-.07 2.323-.215.504-.142.831-.433.975-.868.029-.116.115-.173.263-.173.143 0 .216.057.216.173-.086.842-.174 2.11-.26 3.82a84.295 84.295 0 00-.132 4.166c0 .06-.085.087-.257.087-.177 0-.262-.028-.262-.087-.085-2.257-.55-3.84-1.389-4.752-.84-.91-2.228-1.367-4.165-1.367-1.303 0-2.229.057-2.778.174-.55.115-.924.361-1.128.736-.203.379-.303 1.014-.303 1.912v20.005c0 .895.1 1.547.303 1.95.204.406.594.681 1.171.825.58.145 1.49.219 2.735.219.085 0 .13.085.13.259s-.045.259-.13.259c-.957 0-1.723-.014-2.302-.044l-3.385-.04-3.253.04a49.51 49.51 0 01-2.388.044c-.058 0-.085-.085-.085-.259s.027-.26.085-.26c1.243 0 2.156-.073 2.734-.218.579-.143.977-.426 1.193-.846.218-.418.327-1.062.327-1.93V47.388c0-.895-.103-1.526-.304-1.89-.202-.361-.578-.593-1.129-.693-.549-.102-1.474-.152-2.777-.152-1.822.002-3.189.465-4.101 1.389z"/></svg>