<svg width="200" height="71" viewBox="0 0 200 71"  xmlns="http://www.w3.org/2000/svg">
<path d="M176.818 26.2322C174.719 24.9731 173.101 23.2694 171.958 21.1111C170.814 18.9565 170.245 16.6051 170.245 14.0608C170.245 11.0805 170.997 8.52737 172.501 6.4002C174.006 4.27303 175.938 2.67516 178.293 1.60534C180.653 0.535529 183.059 0 185.52 0C188.268 0 190.684 0.642635 192.767 1.92915C194.85 3.21816 196.447 4.91815 197.563 7.03038C198.675 9.14261 199.232 11.3831 199.232 13.7569C199.232 16.3897 198.537 18.8033 197.15 21.0027C195.762 23.1996 193.903 24.937 191.573 26.211C189.243 27.4814 186.72 28.1178 184.002 28.1178C181.308 28.119 178.914 27.4901 176.818 26.2322ZM190.834 25.7764C192.411 24.8224 193.655 23.4188 194.567 21.5681C195.477 19.7162 195.933 17.518 195.933 14.9724C195.933 12.2524 195.427 9.83506 194.415 7.72532C193.401 5.61309 191.976 3.96416 190.138 2.77852C188.301 1.59164 186.154 0.998825 183.694 0.998825C180.511 0.998825 178.023 2.02629 176.229 4.07999C174.436 6.13492 173.54 8.9558 173.54 12.5414C173.54 15.2613 174.046 17.7422 175.06 19.984C176.071 22.227 177.488 23.9905 179.313 25.277C181.135 26.5672 183.204 27.2086 185.518 27.2086C187.487 27.2086 189.258 26.7304 190.834 25.7764Z"/>
<path d="M181.315 26.6457L197.457 9.46143V10.8513L182.187 27.1874L181.315 26.6457Z"/>
<path d="M18.2071 14.6024C19.6082 15.9475 20.3094 17.6188 20.3094 19.6165C20.3094 21.1496 19.9333 22.537 19.181 23.7824C18.4288 25.0253 17.3951 26.0017 16.0787 26.7104C14.7623 27.419 13.2952 27.774 11.6749 27.774C10.7209 27.774 9.67849 27.7291 8.55014 27.6432C8.14538 27.6158 7.66839 27.5872 7.11916 27.556C6.56869 27.5274 5.96092 27.5137 5.29587 27.5137L2.34548 27.556C1.82489 27.5859 1.08636 27.5996 0.132369 27.5996C0.0738343 27.5996 0.0439453 27.5137 0.0439453 27.3393C0.0439453 27.1637 0.0725888 27.0803 0.132369 27.0803C1.23207 27.0803 2.04035 27.0018 2.56218 26.8411C3.08276 26.6817 3.44393 26.399 3.64569 25.993C3.84869 25.5895 3.95082 24.9543 3.95082 24.085V3.99272C3.95082 3.12342 3.85617 2.48702 3.66811 2.0835C3.48005 1.67749 3.12511 1.39603 2.60452 1.23662C2.08269 1.0772 1.28687 0.998742 0.217058 0.998742C0.131124 0.998742 0.0875347 0.910317 0.0875347 0.739695C0.0875347 0.564091 0.131124 0.478156 0.217058 0.478156L2.34423 0.522993C3.55851 0.581527 4.54115 0.608927 5.29462 0.608927C5.81521 0.608927 6.30092 0.596471 6.74927 0.565335C7.19637 0.537936 7.57996 0.509292 7.89755 0.478156C8.79425 0.393468 9.6349 0.348633 10.4145 0.348633C12.8456 0.348633 14.6689 0.875444 15.8832 1.93156C17.0987 2.99016 17.7052 4.36884 17.7052 6.07755C17.7052 7.46619 17.2569 8.70164 16.3602 9.78889C15.4635 10.8712 14.233 11.7168 12.6725 12.3271C14.9591 12.4977 16.8023 13.2561 18.2071 14.6024ZM7.79044 1.17186C7.42802 1.28892 7.1615 1.56167 6.9859 1.99632C6.81403 2.42972 6.72685 3.12342 6.72685 4.07866V12.3246L8.67842 12.3669C10.7906 12.3669 12.3549 11.8252 13.3649 10.7379C14.3762 9.65439 14.8843 8.21718 14.8843 6.42129C14.8843 4.79976 14.4435 3.49331 13.5617 2.49449C12.6775 1.49566 11.3112 0.997495 9.46179 0.997495C8.70956 0.997495 8.15285 1.05603 7.79044 1.17186ZM15.7325 25.3641C16.7587 24.2793 17.2743 22.7238 17.2743 20.6987C17.2743 18.5018 16.6292 16.7209 15.3414 15.3621C14.0536 14.0021 12.2827 13.3084 10.026 13.2798C9.10062 13.2512 8.00216 13.2798 6.7281 13.3645V24.085C6.7281 24.8373 6.8352 25.4139 7.0544 25.8211C7.26861 26.2272 7.68832 26.5223 8.31227 26.7104C8.93373 26.8984 9.8379 26.9931 11.0248 26.9931C13.1358 26.9931 14.7062 26.4501 15.7325 25.3641Z"/>
<path d="M53.9431 27.3394C53.9431 27.5138 53.8995 27.5997 53.8124 27.5997C52.9157 27.5997 52.207 27.586 51.6864 27.5561L48.6924 27.5138L45.5241 27.5561C45.0035 27.586 44.3098 27.5997 43.4418 27.5997C43.3546 27.5997 43.311 27.5138 43.311 27.3394C43.311 27.1638 43.3558 27.0804 43.4418 27.0804C44.5689 27.0804 45.3946 27.0069 45.9164 26.8624C46.437 26.718 46.7919 26.4353 46.9787 26.0168C47.1656 25.5983 47.2602 24.9532 47.2602 24.0852V13.93H30.5965V24.0852C30.5965 24.9532 30.6887 25.5983 30.878 26.0168C31.0648 26.434 31.4198 26.718 31.9403 26.8624C32.4597 27.0069 33.2854 27.0804 34.415 27.0804C34.4723 27.0804 34.5009 27.1638 34.5009 27.3394C34.5009 27.5138 34.4723 27.5997 34.415 27.5997C33.517 27.5997 32.8084 27.586 32.2878 27.5561L29.1618 27.5138L26.1691 27.5561C25.6485 27.586 24.9237 27.5997 23.9983 27.5997C23.9398 27.5997 23.9111 27.5138 23.9111 27.3394C23.9111 27.1638 23.9398 27.0804 23.9983 27.0804C25.0968 27.0804 25.9163 27.0069 26.4493 26.8624C26.9848 26.718 27.346 26.4353 27.5353 26.0168C27.7234 25.5983 27.8168 24.9532 27.8168 24.0852V3.99284C27.8168 3.12354 27.7234 2.48713 27.5353 2.08362C27.346 1.67761 26.9923 1.39615 26.4717 1.23673C25.9511 1.07732 25.1416 0.998857 24.0407 0.998857C23.9834 0.998857 23.956 0.910432 23.956 0.73981C23.956 0.564207 23.9834 0.478271 24.0407 0.478271L26.2538 0.523108C27.4693 0.581643 28.437 0.609042 29.1606 0.609042C30.0012 0.609042 31.0561 0.581643 32.3302 0.523108L34.4125 0.478271C34.4698 0.478271 34.4984 0.565452 34.4984 0.73981C34.4984 0.911678 34.4698 0.998857 34.4125 0.998857C33.3128 0.998857 32.4933 1.08604 31.9603 1.26039C31.4235 1.43226 31.0623 1.72992 30.8755 2.14962C30.6862 2.56684 30.594 3.21196 30.594 4.08002V13.0184H47.2565V4.08002C47.2565 3.21196 47.1618 2.56808 46.975 2.14962C46.7882 1.72992 46.4333 1.43226 45.9127 1.26039C45.3908 1.08604 44.5651 0.998857 43.438 0.998857C43.3508 0.998857 43.3073 0.910432 43.3073 0.73981C43.3073 0.564207 43.3521 0.478271 43.438 0.478271L45.5204 0.523108C46.7932 0.581643 47.8493 0.609042 48.6887 0.609042C49.4696 0.609042 50.4659 0.581643 51.6827 0.523108L53.8086 0.478271C53.8958 0.478271 53.9394 0.565452 53.9394 0.73981C53.9394 0.911678 53.8958 0.998857 53.8086 0.998857C52.7089 0.998857 51.9006 1.07732 51.3801 1.23673C50.8582 1.39615 50.5045 1.67761 50.3165 2.08362C50.1284 2.48713 50.0338 3.12354 50.0338 3.99284V24.0852C50.0338 24.9532 50.1284 25.5983 50.3165 26.0168C50.5058 26.434 50.8595 26.718 51.3801 26.8624C51.9006 27.0069 52.7089 27.0804 53.8086 27.0804C53.8995 27.0804 53.9431 27.1638 53.9431 27.3394Z"/>
<path d="M83.1042 0.73859C83.1042 0.910457 83.0743 0.997634 83.0157 0.997634C82.2635 0.997634 81.5412 1.2791 80.8462 1.84452C80.1538 2.4062 79.5722 3.1958 79.1101 4.20832L69.4345 25.1687C68.9699 26.1526 68.4282 26.8886 67.8067 27.3818C67.184 27.8725 66.4093 28.1191 65.4852 28.1191C64.6446 28.1191 63.9235 27.9248 63.3145 27.5337C62.708 27.1439 62.4028 26.6022 62.4028 25.906C62.4028 25.414 62.571 24.9968 62.9047 24.6481C63.236 24.3006 63.6769 24.1288 64.2274 24.1288C64.7181 24.1288 65.0954 24.2645 65.3532 24.5398C65.616 24.815 65.8477 25.1849 66.0494 25.6469C66.1951 25.9658 66.3321 26.2049 66.4616 26.3643C66.5924 26.5225 66.7581 26.6022 66.9611 26.6022C67.5389 26.6022 68.0595 26.0367 68.5241 24.9096L69.9986 21.6566L60.4948 4.08004C59.8572 2.9218 59.2868 2.121 58.7799 1.67141C58.2718 1.2243 57.588 0.998881 56.7187 0.998881C56.659 0.998881 56.6328 0.910457 56.6328 0.739834C56.6328 0.564231 56.659 0.478296 56.7187 0.478296L58.4561 0.523132C59.3242 0.581667 60.0615 0.609066 60.6692 0.609066C61.739 0.609066 62.8811 0.581667 64.0966 0.523132L65.8327 0.478296C65.9199 0.478296 65.9635 0.565476 65.9635 0.739834C65.9635 0.911702 65.9199 0.998881 65.8327 0.998881C63.9521 0.998881 63.0118 1.47588 63.0118 2.42987C63.0118 2.74994 63.1426 3.15221 63.4017 3.64539L71.472 18.4858L78.1138 3.99286C78.3442 3.44363 78.4612 2.99279 78.4612 2.64532C78.4612 2.06745 78.186 1.64899 77.6355 1.3862C77.0851 1.12716 76.2307 0.997634 75.0749 0.997634C74.9878 0.997634 74.9442 0.909212 74.9442 0.73859C74.9442 0.562986 74.9878 0.477051 75.0749 0.477051L76.8547 0.521885C77.8373 0.58042 78.7352 0.607819 79.5435 0.607819C80.0367 0.607819 80.6308 0.58042 81.3232 0.521885L83.0157 0.477051C83.0755 0.477051 83.1042 0.562986 83.1042 0.73859Z"/>
<path d="M111.874 27.3394C111.874 27.5138 111.844 27.5997 111.788 27.5997H106.321C105.915 27.5997 105.561 27.4901 105.257 27.2747C104.955 27.0567 104.454 26.4876 103.76 25.5597C103.065 24.6344 101.821 22.8858 100.029 20.3091C98.6105 18.2852 97.5831 16.8804 96.9479 16.0995C96.3102 15.3199 95.6589 14.762 94.9951 14.4269C94.33 14.0957 93.4321 13.93 92.305 13.93C92.0447 13.93 91.8579 13.945 91.7408 13.9724V24.0852C91.7408 24.9532 91.8342 25.5983 92.0235 26.0168C92.2116 26.434 92.5578 26.718 93.0622 26.8624C93.5691 27.0069 94.3873 27.0804 95.5157 27.0804C95.5729 27.0804 95.6041 27.1638 95.6041 27.3394C95.6041 27.5138 95.5729 27.5997 95.5157 27.5997C94.6177 27.5997 93.9103 27.586 93.3885 27.5561L90.2637 27.5138L87.3121 27.5561C86.7928 27.586 86.0679 27.5997 85.1438 27.5997C85.084 27.5997 85.0566 27.5138 85.0566 27.3394C85.0566 27.1638 85.084 27.0804 85.1438 27.0804C86.2423 27.0804 87.0518 27.0069 87.5736 26.8624C88.0942 26.718 88.4479 26.4353 88.6372 26.0168C88.8253 25.5983 88.9199 24.9532 88.9199 24.0852V3.99284C88.9199 3.12354 88.834 2.48713 88.6584 2.08362C88.4853 1.67761 88.1378 1.39615 87.6197 1.23673C87.0979 1.07732 86.2871 0.998857 85.1874 0.998857C85.1301 0.998857 85.1015 0.910432 85.1015 0.73981C85.1015 0.564207 85.1301 0.478271 85.1874 0.478271L87.3146 0.523108C88.5289 0.581643 89.5128 0.609042 90.2662 0.609042C91.1056 0.609042 92.1605 0.581643 93.4333 0.523108L95.5169 0.478271C95.5742 0.478271 95.6053 0.565452 95.6053 0.73981C95.6053 0.911678 95.5742 0.998857 95.5169 0.998857C94.4184 0.998857 93.6064 1.08604 93.0871 1.26039C92.5665 1.43226 92.2116 1.72992 92.0235 2.14962C91.8342 2.56684 91.7408 3.21196 91.7408 4.08002V13.2376C93.3026 13.1778 94.2727 13.1504 94.6488 13.1504H95.4733L100.725 5.81738C102.027 4.02273 102.677 2.7798 102.677 2.08486C102.677 1.7075 102.495 1.43351 102.134 1.26039C101.773 1.08604 101.216 0.998857 100.462 0.998857C100.403 0.998857 100.375 0.910432 100.375 0.73981C100.375 0.564207 100.403 0.478271 100.462 0.478271L102.329 0.523108C103.428 0.581643 104.455 0.609042 105.409 0.609042C106.393 0.609042 107.407 0.581643 108.448 0.523108L110.01 0.478271C110.096 0.478271 110.141 0.565452 110.141 0.73981C110.141 0.911678 110.096 0.998857 110.01 0.998857C108.504 0.998857 107.174 1.36875 106.02 2.10603C104.859 2.84332 103.616 4.09621 102.287 5.85723L96.4709 13.2812C97.1646 13.3957 97.7649 13.6286 98.2718 13.9749C98.7774 14.3211 99.2918 14.808 99.8111 15.4295C100.332 16.0522 101.099 17.0847 102.111 18.5318L102.761 19.4422C104.121 21.3515 105.222 22.8123 106.059 23.8249C106.898 24.8386 107.781 25.6282 108.706 26.1899C109.631 26.7553 110.659 27.0517 111.788 27.0804C111.844 27.0804 111.874 27.1638 111.874 27.3394Z"/>
<path d="M119.362 26.2322C117.264 24.9731 115.645 23.2694 114.502 21.1111C113.361 18.9565 112.789 16.6051 112.789 14.0608C112.789 11.0805 113.541 8.52737 115.043 6.4002C116.549 4.27303 118.481 2.67516 120.838 1.60534C123.196 0.535529 125.603 0 128.064 0C130.811 0 133.228 0.642635 135.311 1.92915C137.394 3.21816 138.993 4.91815 140.107 7.03038C141.219 9.14261 141.777 11.3831 141.777 13.7569C141.777 16.3897 141.082 18.8033 139.694 21.0027C138.305 23.1996 136.446 24.937 134.117 26.211C131.788 27.4814 129.262 28.1178 126.545 28.1178C123.853 28.119 121.458 27.4901 119.362 26.2322ZM133.38 25.7764C134.955 24.8224 136.2 23.4188 137.112 21.5681C138.022 19.7162 138.478 17.518 138.478 14.9724C138.478 12.2524 137.973 9.83506 136.959 7.72532C135.945 5.61309 134.523 3.96416 132.685 2.77852C130.846 1.59164 128.701 0.998825 126.241 0.998825C123.056 0.998825 120.568 2.02629 118.775 4.07999C116.982 6.13492 116.086 8.9558 116.086 12.5414C116.086 15.2613 116.591 17.7422 117.605 19.984C118.616 22.227 120.034 23.9905 121.858 25.277C123.68 26.5672 125.748 27.2086 128.063 27.2086C130.029 27.2086 131.802 26.7304 133.38 25.7764Z"/>
<path d="M163.841 14.6024C165.245 15.9475 165.946 17.6188 165.946 19.6165C165.946 21.1496 165.569 22.537 164.816 23.7824C164.064 25.0253 163.031 26.0017 161.715 26.7104C160.398 27.419 158.929 27.774 157.31 27.774C156.355 27.774 155.315 27.7291 154.186 27.6432C153.78 27.6158 153.301 27.5872 152.753 27.556C152.204 27.5274 151.596 27.5137 150.931 27.5137L147.981 27.556C147.459 27.5859 146.722 27.5996 145.767 27.5996C145.708 27.5996 145.681 27.5137 145.681 27.3393C145.681 27.1637 145.708 27.0803 145.767 27.0803C146.866 27.0803 147.678 27.0018 148.198 26.8411C148.718 26.6817 149.079 26.399 149.282 25.993C149.484 25.5895 149.585 24.9543 149.585 24.085V3.99272C149.585 3.12342 149.493 2.48702 149.302 2.0835C149.117 1.67749 148.759 1.39603 148.24 1.23662C147.718 1.0772 146.922 0.998742 145.853 0.998742C145.765 0.998742 145.723 0.910317 145.723 0.739695C145.723 0.564091 145.765 0.478156 145.853 0.478156L147.98 0.522993C149.195 0.581527 150.179 0.608927 150.93 0.608927C151.452 0.608927 151.934 0.596471 152.383 0.565335C152.832 0.537936 153.214 0.509292 153.536 0.478156C154.432 0.393468 155.27 0.348633 156.052 0.348633C158.481 0.348633 160.306 0.875444 161.52 1.93156C162.735 2.99016 163.343 4.36884 163.343 6.07755C163.343 7.46619 162.894 8.70164 161.998 9.78889C161.1 10.8712 159.872 11.7168 158.308 12.3271C160.593 12.4977 162.438 13.2561 163.841 14.6024ZM153.426 1.17186C153.062 1.28892 152.796 1.56167 152.621 1.99632C152.448 2.42972 152.361 3.12342 152.361 4.07866V12.3246L154.314 12.3669C156.426 12.3669 157.987 11.8252 159.002 10.7379C160.013 9.65439 160.52 8.21718 160.52 6.42129C160.52 4.79976 160.079 3.49331 159.196 2.49449C158.315 1.49566 156.949 0.997495 155.096 0.997495C154.344 0.997495 153.787 1.05603 153.426 1.17186ZM161.368 25.3641C162.392 24.2793 162.907 22.7238 162.907 20.6987C162.907 18.5018 162.262 16.7209 160.974 15.3621C159.688 14.0021 157.917 13.3084 155.658 13.2798C154.734 13.2512 153.634 13.2798 152.361 13.3645V24.085C152.361 24.8373 152.471 25.4139 152.686 25.8211C152.905 26.2272 153.325 26.5223 153.945 26.7104C154.568 26.8984 155.472 26.9931 156.659 26.9931C158.769 26.9931 160.339 26.4501 161.368 25.3641Z"/>
<path d="M0 70.736C0 70.5616 0.0274012 70.4769 0.0871812 70.4769C1.18813 70.4769 1.99641 70.4035 2.51699 70.2578C3.03758 70.1145 3.39252 69.8318 3.58057 69.4121C3.76863 68.9937 3.86329 68.3498 3.86329 67.4817V47.3882C3.86329 46.5201 3.76863 45.8824 3.58057 45.4802C3.39252 45.0742 3.04505 44.7915 2.53941 44.632C2.03377 44.4726 1.23172 44.3929 0.132015 44.3929C0.0734807 44.3929 0.0435918 44.3057 0.0435918 44.1351C0.0435918 43.9583 0.0722353 43.8711 0.132015 43.8711H18.4882C18.7759 43.8711 18.9229 44.0031 18.9229 44.2609L19.0076 49.9475C19.0076 50.0359 18.9229 50.0783 18.7473 50.0783C18.5742 50.0783 18.4882 50.0359 18.4882 49.9475C18.3724 48.326 17.8792 47.0619 17.0112 46.149C16.1443 45.2398 15.0148 44.7815 13.6261 44.7815H10.2C9.21484 44.7815 8.47631 44.8537 7.98686 45.0007C7.49368 45.1439 7.15368 45.4054 6.96687 45.7816C6.77881 46.1564 6.68415 46.7069 6.68415 47.4293V67.3049C6.68415 68.2315 6.80745 68.904 7.05405 69.3237C7.29815 69.7421 7.78261 70.0386 8.5062 70.2117C9.22854 70.3873 10.3718 70.4744 11.9348 70.4744C12.0208 70.4744 12.0644 70.5591 12.0644 70.7335C12.0644 70.9079 12.0195 70.9925 11.9348 70.9925C10.748 70.9925 9.82261 70.9788 9.15755 70.949L5.25193 70.9079L2.30153 70.949C1.78219 70.9788 1.04242 70.9925 0.0884259 70.9925C0.0286459 70.995 0 70.9091 0 70.736Z"/>
<path d="M29.229 69.326C29.4731 69.7445 29.9526 70.0409 30.66 70.214C31.3711 70.3896 32.4895 70.4768 34.0239 70.4768C34.1098 70.4768 34.1546 70.5615 34.1546 70.7358C34.1546 70.9102 34.1098 70.9949 34.0239 70.9949C32.8382 70.9949 31.9116 70.9812 31.2466 70.9513L27.4717 70.9102L24.5637 70.9513C24.0157 70.9812 23.2784 70.9949 22.3518 70.9949C22.2945 70.9949 22.2646 70.9102 22.2646 70.7358C22.2646 70.5615 22.2945 70.4768 22.3518 70.4768C23.449 70.4768 24.2536 70.4033 24.7592 70.2576C25.2649 70.1144 25.6061 69.8317 25.778 69.412C25.9536 68.9935 26.0395 68.3496 26.0395 67.4816V47.388C26.0395 46.52 25.9536 45.8823 25.778 45.48C25.6061 45.074 25.2636 44.7913 24.7592 44.6319C24.2548 44.4725 23.4503 44.3928 22.3518 44.3928C22.2945 44.3928 22.2646 44.3056 22.2646 44.135C22.2646 43.9581 22.2945 43.8709 22.3518 43.8709L24.5213 43.9145C25.7356 43.9756 26.7046 44.003 27.4281 44.003C28.153 44.003 28.9613 43.9581 29.8592 43.8709C30.2054 43.8709 30.7547 43.851 31.5081 43.8074C32.2604 43.7638 32.9117 43.7427 33.4609 43.7427C36.1224 43.7427 38.2558 44.3367 39.8611 45.5199C41.4665 46.708 42.2698 48.5151 42.2698 50.9449C42.2698 52.8541 41.799 54.4595 40.86 55.7622C39.9172 57.0649 38.7104 58.0326 37.2358 58.6702C35.76 59.3067 34.2406 59.6255 32.6801 59.6255C31.8394 59.6255 31.1457 59.5532 30.5965 59.4088C30.5106 59.4088 30.467 59.3353 30.467 59.1908C30.467 59.1049 30.4894 59.0165 30.5305 58.9293C30.5753 58.8421 30.6264 58.8135 30.6849 58.8421C31.147 58.9604 31.6675 59.0177 32.2479 59.0177C34.1559 59.0177 35.7675 58.3963 37.0839 57.1533C38.4003 55.9067 39.0566 54.1145 39.0566 51.7694C39.0566 49.4865 38.4364 47.6869 37.1935 46.3693C35.9468 45.0504 34.3564 44.3928 32.4185 44.3928C31.3786 44.3928 30.6264 44.4526 30.1631 44.5684C29.6985 44.6842 29.3673 44.952 29.1643 45.3704C28.9613 45.7901 28.8616 46.4938 28.8616 47.4764V67.3072C28.8604 68.2338 28.9824 68.9063 29.229 69.326Z"/>
<path d="M71.995 70.736C71.995 70.9103 71.9377 70.995 71.8219 70.995C71.2727 70.995 70.4171 70.9664 69.2613 70.9103C68.1019 70.8506 67.2649 70.8244 66.7444 70.8244C66.1067 70.8244 65.2959 70.8506 64.3145 70.9103C63.3867 70.9664 62.6781 70.995 62.1874 70.995C62.0728 70.995 62.0143 70.9103 62.0143 70.736C62.0143 70.5616 62.0728 70.4769 62.1874 70.4769C63.2572 70.4769 64.0381 70.3736 64.5313 70.1706C65.0244 69.9713 65.2685 69.6251 65.2685 69.1307C65.2685 68.7246 65.0805 68.1044 64.7056 67.2638L59.7152 56.6341H51.5129L47.7816 65.4853C47.3744 66.4704 47.1739 67.2775 47.1739 67.9151C47.1739 69.6238 48.5924 70.4769 51.427 70.4769C51.5714 70.4769 51.6424 70.5616 51.6424 70.736C51.6424 70.9103 51.5714 70.995 51.427 70.995C50.9051 70.995 50.1529 70.9664 49.1703 70.9103C48.0706 70.8506 47.1166 70.8244 46.3058 70.8244C45.5536 70.8244 44.6855 70.8506 43.7016 70.9103C42.8336 70.9664 42.1113 70.995 41.5334 70.995C41.3877 70.995 41.3154 70.9103 41.3154 70.736C41.3154 70.5616 41.3877 70.4769 41.5334 70.4769C42.3417 70.4769 43.0291 70.3225 43.5933 70.0199C44.1587 69.7172 44.6918 69.1817 45.1986 68.4145C45.7043 67.6486 46.261 66.5414 46.8687 65.0967L56.0275 43.4838C56.0848 43.3991 56.1845 43.3542 56.3314 43.3542C56.4734 43.3542 56.5618 43.3978 56.5905 43.4838L66.8328 65.0519C67.8167 67.1928 68.6573 68.6325 69.3498 69.3698C70.0435 70.1071 70.8679 70.4782 71.8244 70.4782C71.9365 70.4769 71.995 70.5616 71.995 70.736ZM51.9027 55.72H59.2806L55.3737 47.4766L51.9027 55.72Z"/>
<path d="M103.412 70.736C103.412 70.9103 103.368 70.995 103.282 70.995C102.384 70.995 101.677 70.9813 101.155 70.9514L98.1623 70.9103L94.994 70.9514C94.4722 70.9813 93.7785 70.995 92.9117 70.995C92.8245 70.995 92.7809 70.9103 92.7809 70.736C92.7809 70.5616 92.8245 70.4769 92.9117 70.4769C94.04 70.4769 94.8632 70.4035 95.3851 70.2578C95.9056 70.1145 96.2606 69.8318 96.4486 69.4121C96.6355 68.9937 96.7301 68.3498 96.7301 67.4817V57.3253H80.0664V67.4817C80.0664 68.3498 80.1586 68.9937 80.3491 69.4121C80.5372 69.8318 80.8921 70.1133 81.4115 70.2578C81.9321 70.4035 82.7565 70.4769 83.8874 70.4769C83.9434 70.4769 83.9733 70.5616 83.9733 70.736C83.9733 70.9103 83.9434 70.995 83.8874 70.995C82.9907 70.995 82.2808 70.9813 81.7602 70.9514L78.6354 70.9103L75.6415 70.9514C75.1209 70.9813 74.396 70.995 73.4707 70.995C73.4134 70.995 73.3848 70.9103 73.3848 70.736C73.3848 70.5616 73.4134 70.4769 73.4707 70.4769C74.5716 70.4769 75.3886 70.4035 75.9229 70.2578C76.4597 70.1145 76.8196 69.8318 77.0102 69.4121C77.197 68.9937 77.2916 68.3498 77.2916 67.4817V47.3882C77.2916 46.5201 77.197 45.8824 77.0102 45.4802C76.8196 45.0742 76.4659 44.7915 75.9466 44.632C75.426 44.4726 74.614 44.3929 73.5155 44.3929C73.4582 44.3929 73.4296 44.3057 73.4296 44.1351C73.4296 43.9583 73.4582 43.8711 73.5155 43.8711L75.7274 43.9147C76.9442 43.9757 77.9106 44.0031 78.6354 44.0031C79.4749 44.0031 80.5297 43.9757 81.8038 43.9147L83.8874 43.8711C83.9434 43.8711 83.9733 43.9583 83.9733 44.1351C83.9733 44.3057 83.9434 44.3929 83.8874 44.3929C82.7877 44.3929 81.9682 44.4814 81.4339 44.6545C80.8996 44.8288 80.5384 45.1265 80.3491 45.5437C80.1598 45.9634 80.0664 46.6073 80.0664 47.4766V56.4149H96.7301V47.4766C96.7301 46.6085 96.6355 45.9634 96.4486 45.5437C96.2606 45.1265 95.9056 44.8288 95.3851 44.6545C94.8645 44.4814 94.04 44.3929 92.9117 44.3929C92.8245 44.3929 92.7809 44.3057 92.7809 44.1351C92.7809 43.9583 92.8245 43.8711 92.9117 43.8711L94.994 43.9147C96.2668 43.9757 97.3217 44.0031 98.1623 44.0031C98.9432 44.0031 99.9408 43.9757 101.155 43.9147L103.282 43.8711C103.368 43.8711 103.412 43.9583 103.412 44.1351C103.412 44.3057 103.368 44.3929 103.282 44.3929C102.183 44.3929 101.374 44.4726 100.852 44.632C100.332 44.7915 99.9769 45.0729 99.7888 45.4802C99.602 45.8824 99.5061 46.5201 99.5061 47.3882V67.4817C99.5061 68.3498 99.6008 68.9937 99.7888 69.4121C99.9757 69.8318 100.332 70.1133 100.852 70.2578C101.374 70.4035 102.183 70.4769 103.282 70.4769C103.368 70.4769 103.412 70.5616 103.412 70.736Z"/>
<path d="M135.829 70.736C135.829 70.9104 135.801 70.9951 135.742 70.9951C134.818 70.9951 134.093 70.9814 133.573 70.9515L130.581 70.9104L127.41 70.9515C126.891 70.9814 126.196 70.9951 125.328 70.9951C125.271 70.9951 125.242 70.9104 125.242 70.736C125.242 70.5617 125.271 70.477 125.328 70.477C126.456 70.477 127.28 70.4035 127.801 70.2578C128.322 70.1146 128.676 69.8318 128.864 69.4121C129.053 68.9937 129.148 68.3498 129.148 67.4817V49.5589L113.005 66.8291V67.4817C113.005 68.3498 113.097 68.9937 113.289 69.4121C113.475 69.8318 113.83 70.1133 114.35 70.2578C114.87 70.4035 115.696 70.477 116.824 70.477C116.882 70.477 116.909 70.5617 116.909 70.736C116.909 70.9104 116.882 70.9951 116.824 70.9951C115.925 70.9951 115.218 70.9814 114.698 70.9515L111.571 70.9104L108.58 70.9515C108.058 70.9814 107.334 70.9951 106.409 70.9951C106.35 70.9951 106.324 70.9104 106.324 70.736C106.324 70.5617 106.35 70.477 106.409 70.477C107.509 70.477 108.327 70.4035 108.861 70.2578C109.397 70.1146 109.757 69.8318 109.947 69.4121C110.135 68.9937 110.229 68.3498 110.229 67.4817V47.3882C110.229 46.5201 110.136 45.8825 109.947 45.4802C109.757 45.0742 109.403 44.7915 108.884 44.6321C108.362 44.4727 107.553 44.393 106.454 44.393C106.395 44.393 106.368 44.3058 106.368 44.1351C106.368 43.9583 106.395 43.8711 106.454 43.8711L108.667 43.9147C109.881 43.9757 110.851 44.0031 111.572 44.0031C112.413 44.0031 113.469 43.9757 114.743 43.9147L116.826 43.8711C116.883 43.8711 116.91 43.9583 116.91 44.1351C116.91 44.3058 116.883 44.393 116.826 44.393C115.725 44.393 114.906 44.4814 114.373 44.6545C113.837 44.8288 113.477 45.1265 113.29 45.5437C113.099 45.9634 113.006 46.6073 113.006 47.4766V65.3546L129.149 48.1691V47.4754C129.149 46.6073 129.056 45.9622 128.865 45.5425C128.678 45.1253 128.323 44.8276 127.803 44.6532C127.281 44.4801 126.458 44.3917 125.329 44.3917C125.272 44.3917 125.243 44.3045 125.243 44.1339C125.243 43.9571 125.272 43.8699 125.329 43.8699L127.412 43.9135C128.686 43.9745 129.741 44.0019 130.582 44.0019C131.304 44.0019 132.302 43.9745 133.574 43.9135L135.743 43.8699C135.802 43.8699 135.831 43.9571 135.831 44.1339C135.831 44.3045 135.802 44.3917 135.743 44.3917C134.644 44.3917 133.835 44.4714 133.314 44.6308C132.794 44.7902 132.439 45.0717 132.25 45.479C132.062 45.8812 131.966 46.5189 131.966 47.3869V67.4805C131.966 68.3485 132.061 68.9924 132.25 69.4109C132.438 69.8306 132.794 70.1121 133.314 70.2565C133.835 70.4022 134.644 70.4757 135.743 70.4757C135.801 70.477 135.829 70.5617 135.829 70.736Z"/>
<path d="M140.537 46.0419C139.627 46.9697 138.968 48.5464 138.563 50.7732C138.563 50.833 138.483 50.8604 138.325 50.8604C138.166 50.8604 138.086 50.833 138.086 50.7732C138.203 49.7295 138.331 48.3708 138.477 46.6957C138.623 45.0144 138.694 43.7565 138.694 42.9196C138.694 42.7739 138.773 42.7017 138.933 42.7017C139.091 42.7017 139.171 42.7739 139.171 42.9196C139.171 43.5573 139.952 43.8724 141.515 43.8724C143.972 43.9595 146.881 44.0044 150.236 44.0044C151.945 44.0044 153.752 43.977 155.66 43.9159L158.61 43.8724C159.654 43.8724 160.426 43.8014 160.933 43.6569C161.437 43.5149 161.764 43.2235 161.908 42.7888C161.937 42.673 162.023 42.6157 162.171 42.6157C162.314 42.6157 162.387 42.673 162.387 42.7888C162.301 43.6307 162.213 44.8998 162.127 46.6085C162.039 48.316 161.995 49.7034 161.995 50.7745C161.995 50.8342 161.91 50.8616 161.738 50.8616C161.561 50.8616 161.476 50.8342 161.476 50.7745C161.391 48.5178 160.926 46.9348 160.087 46.0232C159.247 45.1128 157.859 44.6557 155.922 44.6557C154.619 44.6557 153.693 44.713 153.144 44.8301C152.594 44.9447 152.22 45.1912 152.016 45.5661C151.813 45.9447 151.713 46.5799 151.713 47.4778V67.483C151.713 68.3784 151.813 69.0298 152.016 69.4333C152.22 69.8393 152.61 70.1145 153.187 70.2578C153.767 70.4035 154.677 70.4769 155.922 70.4769C156.007 70.4769 156.052 70.5616 156.052 70.736C156.052 70.9104 156.007 70.995 155.922 70.995C154.965 70.995 154.199 70.9813 153.62 70.9515L150.235 70.9104L146.982 70.9515C146.403 70.9813 145.607 70.995 144.594 70.995C144.536 70.995 144.509 70.9104 144.509 70.736C144.509 70.5616 144.536 70.4769 144.594 70.4769C145.837 70.4769 146.75 70.4035 147.328 70.2578C147.907 70.1145 148.305 69.8318 148.521 69.4121C148.739 68.9937 148.848 68.3498 148.848 67.4817V47.3882C148.848 46.4927 148.745 45.8625 148.544 45.4989C148.342 45.1365 147.966 44.9048 147.415 44.8052C146.866 44.703 145.941 44.6532 144.638 44.6532C142.816 44.6545 141.449 45.1178 140.537 46.0419Z"/>
</svg>
